PathFileType	4	(X/Y/Z)	7_coords_data.trc
DataRate	CameraRate	NumFrames	NumMarkers	Units	OrigDataRate	OrigDataStartFrame	OrigNumFrames
30.0	30.0	5	21	m	30.0	76	86
Frame#	Time	THUMB_TIP	THUMB_IP	THUMB_MCP	THUMB_CMC	INDEX_TIP	INDEX_DIP	INDEX_PIP	INDEX_MCP	MIDDLE_TIP	MIDDLE_DIP	MIDDLE_PIP	MIDDLE_MCP	RING_TIP	RING_DIP	RING_PIP	RING_MCP	PINKY_TIP	PINKY_DIP	PINKY_PIP	PINKY_MCP	WRIST
X1	Y1	Z1	X2	Y2	Z2	X3	Y3	Z3	X4	Y4	Z4	X5	Y5	Z5	X6	Y6	Z6	X7	Y7	Z7	X8	Y8	Z8	X9	Y9	Z9	X10	Y10	Z10	X11	Y11	Z11	X12	Y12	Z12	X13	Y13	Z13	X14	Y14	Z14	X15	Y15	Z15	X16	Y16	Z16	X17	Y17	Z17	X18	Y18	Z18	X19	Y19	Z19	X20	Y20	Z20	X21	Y21	Z21
74	2.4999999999999885	0.5360713280647265	0.048486916694702564	-0.11849237978355565	0.5209606666892946	0.03681508128625727	-0.1057081640862515	0.5001658943699875	0.028633877640230065	-0.08404101496389565	0.4728767820608253	-0.004001009968083502	-0.0706187029361311	0.5973911489366235	-0.0036764517073694103	-0.14391745355432906	0.5885751854097594	-0.003960955200470351	-0.1280998100871304	0.5732152048997099	-0.0037689858655497455	-0.10819895634902776	0.5365700985279469	-0.0019196110199008465	-0.08658062880773887	0.6019056379730953	-0.04270250677181611	-0.1482035220304409	0.5904621647488907	-0.04072748217118685	-0.13430581724174218	0.5712861272373317	-0.03606787154393898	-0.11285873902214005	0.5347537745661103	-0.02589270228109833	-0.08923669296812414	0.5812553775302767	-0.05620709998173262	-0.15593756133575704	0.5709397324964932	-0.05589606562319474	-0.14115612956597268	0.5555782889049528	-0.0540417957863733	-0.12164285938498615	0.5248649608879158	-0.04325911109971997	-0.09766065708690463	0.5321087839251534	-0.07913612539216353	-0.16707498507162494	0.5269219042026636	-0.07527488035360003	-0.1512261029187224	0.5203355911469258	-0.06918295259780857	-0.13224398197426424	0.5059242293006638	-0.0542679923614072	-0.10273567700968395	0.4622830810018609	-0.023011742144276925	-0.051989820119430985
75	2.5333333333333217	0.5421747832204447	0.04762300568627714	-0.11169822396252571	0.5258852035235825	0.0362417839168811	-0.10016057323391525	0.5040404513927524	0.0281830714560099	-0.0795042435063088	0.4740811164363099	-0.0031172340714301083	-0.068892027768934	0.6008271715113167	-0.00944949519021604	-0.1398464361160191	0.5917553523353895	-0.010207104356565078	-0.12418986799939974	0.575975222507194	-0.010140428103185106	-0.1046196638644773	0.538647532233506	-0.006444900293007261	-0.08445477588968758	0.6020695578205411	-0.05002867894577892	-0.14636935520641126	0.5904373758643258	-0.04800669981747932	-0.13263604011710312	0.5711088087421968	-0.04294632347749258	-0.11141791969367587	0.5346768097012966	-0.030516763722642448	-0.08873833832222078	0.57935057097114	-0.0615713223140284	-0.15606130270254237	0.568781064311999	-0.06145885550575972	-0.14145743745393713	0.5532279525025559	-0.05953363411888643	-0.1221035175756674	0.523038979051381	-0.046834606623109426	-0.09839526127905707	0.5274547707080394	-0.07970182950549679	-0.16968007262317258	0.522135387651636	-0.07636286246482943	-0.15375664764609603	0.5157383132564481	-0.07074388549831029	-0.13456507251448796	0.5025201181266528	-0.05603865207451758	-0.10440021086285045	0.462283081001861	-0.023011742144276953	-0.051989820119430985
76	2.566666666666655	0.5473667993159741	0.045397054673584014	-0.10661484133640203	0.5300669821694612	0.03459936672107644	-0.0960258724735949	0.5072294678316097	0.02706327347595089	-0.07626542618639792	0.47517189423380435	-0.0027085245988713313	-0.0675566941080008	0.6026332524688639	-0.015643651218515575	-0.13715724337408314	0.5935007161139146	-0.016462861334675172	-0.12153912330439764	0.5776076001643711	-0.016027120583389343	-0.10206532479429614	0.5400129598753686	-0.01027101140262765	-0.08290426212440061	0.6010650576032729	-0.05684432736803008	-0.14536814815788396	0.5895387394764239	-0.054503863219697024	-0.13159621227330193	0.5704531749857555	-0.048696318942183126	-0.11034948999580091	0.5344633341010422	-0.03414015680852564	-0.08823620398870358	0.5771181411991702	-0.06627264039669872	-0.1563920248128296	0.5665721708715905	-0.06612557727802088	-0.14177146113392397	0.5511897957222155	-0.06387547599355228	-0.12231639603576688	0.5216564930217206	-0.049532834064558745	-0.09871992409402064	0.5234949078873818	-0.0799678601726552	-0.1715598988285733	0.5182998110507165	-0.07701300496786234	-0.15551995495160248	0.512277148061483	-0.07174289259730907	-0.13610950763270074	0.5000725352421678	-0.05733907651830705	-0.10537742408320971	0.4622830810018609	-0.023011742144276953	-0.051989820119430985
78	2.6000000000000028	0.5515680457155354	0.041884628335456475	-0.10394629067431299	0.5334582728784717	0.03205253202989705	-0.09377938308015465	0.5097836622210815	0.025416806233874656	-0.07469273975606566	0.476183423797229	-0.00286305913740037	-0.0668720497326194	0.6026984137473032	-0.02120858895187616	-0.13616884377725685	0.5938487259041827	-0.021775574454775598	-0.1203776578648933	0.5782674602015834	-0.02072720005545292	-0.10067651822212514	0.540866310912371	-0.013140842986297252	-0.08177579568923449	0.5991577048064971	-0.06179681684043456	-0.1454417863946531	0.5881038956793605	-0.059167231510030754	-0.13133864544056234	0.5696955720168274	-0.05271620217359396	-0.1096839140768196	0.5343852405707404	-0.03663108019345701	-0.08753448372180594	0.5745582625846523	-0.06938781218968218	-0.15727020444894424	0.5644736147070545	-0.06919201404374428	-0.14232826547600935	0.5497558171039776	-0.06670096754572022	-0.12239434714419234	0.5211022628340313	-0.051318504475588306	-0.0983719723324617	0.5203162508635673	-0.0792629937746677	-0.17290641475799023	0.51567954503994	-0.07678118034154457	-0.1566171065716887	0.510335799701398	-0.07201276421894864	-0.13688088068023269	0.4990237330063396	-0.05823113970618288	-0.10552825042572794	0.462283081001861	-0.023011742144276898	-0.051989820119430985
79	2.6333333333333364	0.5548150522201636	0.03830553861762703	-0.10247214750408473	0.5360963051244608	0.02945479746860913	-0.09250856941786473	0.5117739938061956	0.023771765572963788	-0.07393578501136111	0.47701861289586256	-0.003183164300036734	-0.06649365807618446	0.6021478330084583	-0.026060841122913014	-0.13582115512103143	0.5936453963063677	-0.026266150458395893	-0.11983158295027885	0.5784693124838668	-0.024541241732598446	-0.09986358348362984	0.5413952605914208	-0.01536966738720319	-0.08102126424466366	0.59710561535793	-0.06576298910131895	-0.14576233950092293	0.586602526221562	-0.0628286320301562	-0.13130292501857188	0.568952110241391	-0.05575821988184956	-0.10921488214963465	0.5343313808884624	-0.03846501780904629	-0.08688780929759116	0.5721959595135638	-0.07180863244408969	-0.15805219360782613	0.5626687284366036	-0.07152529451452758	-0.1427501810727418	0.5487102562753354	-0.06878893683679035	-0.12230871878202998	0.5208727571706508	-0.052648313905236166	-0.09782862954652949	0.5180088984209987	-0.0786286299017018	-0.17364455750997498	0.5139309732348307	-0.07655391846093607	-0.15715013122066218	0.5092083146865776	-0.07221679294329586	-0.13715768621058783	0.4985635544566861	-0.05899471622690508	-0.10533396521580157	0.4622830810018608	-0.023011742144276925	-0.051989820119430985
